<svg width="259" height="64" viewBox="0 0 259 64" fill="none" xmlns="http://www.w3.org/2000/svg">
<path d="M56.0645 51.4087C58.9488 47.5963 61.0015 43.2139 62.0885 38.548C63.0442 34.4805 63.2321 30.2685 62.6422 26.1312C62.2624 23.5857 61.2017 17.0393 56.0522 10.8581C51.4344 5.31567 46.0669 3.09821 43.867 2.22504C38.0855 -0.0127162 31.7974 -0.576634 25.7141 0.597097C21.6613 1.3754 17.7969 2.93763 14.3348 5.19728C11.6294 7.01341 9.22588 9.24857 7.21331 11.8201C5.222 14.3745 3.62626 17.2178 2.48032 20.2533C1.40156 22.9465 0.656121 25.7631 0.260817 28.6397C-0.177101 32.1391 -0.0630035 35.6862 0.598887 39.1498C1.08884 41.72 1.88257 45.9181 4.82722 50.2914C8.31571 55.4712 12.8209 57.9378 15.643 59.4177C20.6626 62.0816 25.0722 62.8093 28.2006 63.2977C33.3452 64.1018 37.2183 63.8625 40.5108 63.6726C46.16 63.3495 54.1977 62.9326 65.1287 62.5478L53.3183 51.981H33.181C32.2011 51.981 21.0056 51.9292 15.278 43.2172C12.0369 38.2988 12.1129 32.9883 12.1423 31.3924C12.1864 29.6658 12.353 25.2555 15.2731 20.7466C17.0171 18.1029 19.3607 15.9148 22.1104 14.3631C23.8449 13.3765 28.6734 10.9962 34.9179 11.9853C38.4854 12.6092 41.8284 14.1629 44.6142 16.4918C46.084 17.7251 49.1781 20.3569 50.7068 25.0039C52.0297 29.0171 51.4956 32.4185 51.1968 34.1426C50.5936 37.6363 49.1419 40.9257 46.9709 43.7179C48.6906 45.1436 50.4202 46.5931 52.1595 48.0665C53.4775 49.1847 54.7792 50.2988 56.0645 51.4087Z" fill="#FF6600"/>
<path d="M32.5644 41.0527C37.5834 41.0527 41.6521 36.9683 41.6521 31.9299C41.6521 26.8915 37.5834 22.8071 32.5644 22.8071C27.5454 22.8071 23.4767 26.8915 23.4767 31.9299C23.4767 36.9683 27.5454 41.0527 32.5644 41.0527Z" fill="#FF6600"/>
<path d="M79.6154 7.60254V28.5488C79.6154 32.5149 80.0074 35.2473 80.7913 36.7458C82.0979 39.1035 84.5779 40.2832 88.2314 40.2848C91.9601 40.2848 94.4213 39.1617 95.6152 36.9155C96.4318 35.276 96.8401 32.5617 96.8401 28.7726V7.60254H102.994V28.2611C102.994 33.5077 102.341 37.3451 101.034 39.7733C100.111 41.4509 98.7342 42.8328 97.0631 43.7599C94.7896 44.9961 91.8621 45.6142 88.2804 45.6142C81.8668 45.6142 77.56 43.6673 75.3601 39.7733C74.091 37.5287 73.4574 33.7479 73.459 28.4308V7.60254H79.6154Z" fill="#232323"/>
<path d="M115.111 7.60254H131.375C135.824 7.60254 138.927 8.13496 140.684 9.1998C143.795 11.0329 145.35 14.0007 145.35 18.1034C145.35 24.0775 141.948 27.5595 135.143 28.5493C137.799 29.9941 140.36 32.6954 142.825 36.6531L148.433 45.6142H140.91L135.693 37.5655C134.056 34.9775 132.803 33.1703 131.935 32.1438C131.259 31.2837 130.425 30.5662 129.479 30.0316C128.543 29.5 127.069 29.2342 125.058 29.2342H121.337V45.6142H115.111V7.60254ZM129.57 24.04C132.861 24.04 135.18 23.6784 136.526 22.9552C138.163 22.0803 138.982 20.5581 138.982 18.3884C138.982 14.699 136.103 12.8534 130.346 12.8517H121.259V24.04H129.57Z" fill="#232323"/>
<path d="M167.216 12.9667H155.249V7.60254H185.541V12.9667H173.573V45.6142H167.216V12.9667Z" fill="#232323"/>
<path d="M188.57 45.6142L202.809 7.60254H209.265L224.164 45.6142H217.435L213.681 35.4533H198.669L195.026 45.6142H188.57ZM211.75 30.2616L208.327 20.9005C207.149 17.5144 206.358 15.1739 205.954 13.8791C205.328 16.2387 204.666 18.3701 203.967 20.2731L200.436 30.2716L211.75 30.2616Z" fill="#232323"/>
<path d="M234.699 32.3255C235.377 37.6538 238.595 40.318 244.351 40.318C250.001 40.318 252.826 38.3669 252.828 34.4647C252.828 33.0008 252.301 31.8942 251.246 31.145C250.189 30.3235 247.645 29.4198 243.616 28.434C238.719 27.1952 235.367 25.8808 233.558 24.4908C232.46 23.6316 231.578 22.5294 230.983 21.2717C230.387 20.014 230.093 18.6354 230.126 17.2451C230.126 14.1332 231.35 11.6194 233.798 9.70365C236.247 7.78789 239.486 6.83412 243.515 6.84234C252.784 6.84234 257.569 10.6122 257.869 18.152L251.766 18.4897C251.238 14.2507 248.545 12.1312 243.686 12.1312C238.601 12.1312 236.057 13.7069 236.056 16.8582C236.056 18.2087 236.659 19.2594 237.865 20.0103C239.107 20.7956 241.424 21.5646 244.817 22.3171C249.864 23.4803 253.348 24.812 255.27 26.3121C257.755 28.1868 258.998 30.7753 259 34.0778C259 37.6415 257.68 40.4552 255.04 42.5188C252.4 44.5824 248.803 45.6142 244.247 45.6142C234.491 45.6142 229.312 41.3752 228.708 32.8973L234.699 32.3255Z" fill="#232323"/>
<path d="M73.459 62.3392V55.4971H77.8609V56.3049H74.264V58.3965H77.6329V59.1992H74.264V61.5287H78.0028V62.3366L73.459 62.3392Z" fill="#323135"/>
<path d="M79.5176 62.3299V57.8699H80.1931V58.4943C80.3336 58.2758 80.526 58.0952 80.7532 57.9685C80.9982 57.8353 81.2746 57.7704 81.5534 57.7807C81.8386 57.7686 82.1209 57.8405 82.3654 57.9873C82.5759 58.1214 82.7338 58.3237 82.8126 58.56C82.9554 58.3224 83.1575 58.1256 83.3992 57.989C83.6409 57.8525 83.914 57.7807 84.1918 57.7807C84.3782 57.7686 84.565 57.7948 84.7408 57.8578C84.9165 57.9208 85.0773 58.0192 85.2133 58.1469C85.4755 58.4624 85.6038 58.8675 85.571 59.276V62.3275H84.8179V59.5271C84.8286 59.3071 84.804 59.0868 84.7449 58.8746C84.6944 58.7403 84.5998 58.6269 84.4766 58.553C84.3405 58.471 84.1837 58.4295 84.0247 58.4333C83.8799 58.4287 83.7357 58.4541 83.6013 58.5078C83.4668 58.5616 83.3449 58.6425 83.2433 58.7455C83.1277 58.8829 83.0405 59.0418 82.9868 59.2131C82.9331 59.3843 82.9139 59.5644 82.9303 59.7431V62.3252H82.1748V59.4379C82.1935 59.1739 82.1294 58.9105 81.9912 58.6844C81.918 58.5966 81.8245 58.5278 81.7187 58.4841C81.6129 58.4403 81.498 58.4229 81.384 58.4333C81.1759 58.4313 80.9716 58.4891 80.7956 58.5999C80.612 58.7136 80.4732 58.8869 80.4025 59.0905C80.3073 59.394 80.2658 59.7118 80.2801 60.0295V62.3392L79.5176 62.3299Z" fill="#323135"/>
<path d="M87.0906 63.8574V57.8766H87.7645V58.4377C87.9051 58.2356 88.0888 58.0666 88.3026 57.9427C88.5269 57.8275 88.777 57.771 89.0294 57.7785C89.3798 57.7723 89.7239 57.8718 90.0161 58.0636C90.307 58.2622 90.5313 58.5427 90.6601 58.8688C90.808 59.2309 90.8815 59.6187 90.8763 60.0093C90.8862 60.4194 90.8078 60.8269 90.6463 61.2046C90.5071 61.5279 90.2759 61.8038 89.981 61.9987C89.686 62.1936 89.3401 62.2989 88.9857 62.3018C88.7554 62.3051 88.5278 62.2518 88.3233 62.1467C88.1364 62.0519 87.9718 61.9189 87.8404 61.7566V63.8597L87.0906 63.8574ZM87.7553 60.0618C87.7553 60.6184 87.8695 61.0297 88.098 61.2958C88.1956 61.4201 88.3204 61.5206 88.4631 61.5898C88.6058 61.659 88.7625 61.6949 88.9213 61.695C89.0847 61.6945 89.2457 61.6568 89.3921 61.5848C89.5384 61.5128 89.6661 61.4085 89.7654 61.2799C89.9954 61.0061 90.1173 60.5773 90.1173 60.0002C90.1502 59.5605 90.0291 59.1231 89.7746 58.7616C89.6791 58.6354 89.5556 58.5326 89.4136 58.4614C89.2716 58.3902 89.1149 58.3524 88.9558 58.351C88.7918 58.3554 88.6309 58.3972 88.4857 58.4732C88.3406 58.5491 88.215 58.6572 88.1187 58.789C87.8528 59.1588 87.7243 59.6086 87.7553 60.0618Z" fill="#323135"/>
<path d="M91.6345 60.0582C91.6345 59.2517 91.8829 58.6537 92.3797 58.2642C92.8052 57.9363 93.3512 57.7632 93.9108 57.7789C94.213 57.7699 94.5141 57.8175 94.7948 57.9189C95.0755 58.0202 95.3298 58.1731 95.5414 58.3677C95.7608 58.5882 95.9296 58.8455 96.0382 59.125C96.1468 59.4045 96.1931 59.7005 96.1743 59.9961C96.1978 60.4515 96.1017 60.9054 95.8936 61.3209C95.7107 61.6388 95.4262 61.9 95.077 62.0708C94.7201 62.2485 94.3185 62.3404 93.9108 62.3376C93.6064 62.349 93.3026 62.3024 93.0195 62.201C92.7363 62.0995 92.4801 61.9454 92.2674 61.7487C91.8412 61.3577 91.6345 60.7942 91.6345 60.0582ZM92.4766 60.0582C92.4766 60.6179 92.6119 61.0357 92.8824 61.3117C93.0086 61.4444 93.1652 61.5509 93.3414 61.6239C93.5176 61.6969 93.7092 61.7347 93.9031 61.7347C94.0971 61.7347 94.2887 61.6969 94.4649 61.6239C94.6411 61.5509 94.7976 61.4444 94.9239 61.3117C95.1944 61.0327 95.3296 60.6072 95.3296 60.0352C95.3635 59.5954 95.2183 59.1596 94.9213 58.8093C94.7944 58.6777 94.6376 58.5721 94.4615 58.4998C94.2854 58.4275 94.0941 58.3901 93.9006 58.3901C93.7071 58.3901 93.5158 58.4275 93.3397 58.4998C93.1636 58.5721 93.0068 58.6777 92.8798 58.8093C92.5825 59.1681 92.4393 59.6117 92.4766 60.0582Z" fill="#323135"/>
<path d="M97.7032 62.3392L96.1783 57.7874H97.0418L97.8291 60.4083L98.1257 61.3834C98.1257 61.3354 98.2228 61.024 98.3882 60.4466L99.1755 57.7874H100.042L100.787 60.4227L101.034 61.2899L101.32 60.4131L102.173 57.7778H102.994L101.438 62.3297H100.561L99.7739 59.6081L99.5823 58.8343L98.5745 62.3297L97.7032 62.3392Z" fill="#323135"/>
<path d="M106.789 60.8427L107.508 60.937C107.416 61.3492 107.195 61.7158 106.879 61.9758C106.483 62.2479 106.013 62.373 105.543 62.3314C105.072 62.2898 104.628 62.0839 104.28 61.746C103.926 61.3522 103.75 60.8014 103.751 60.0935C103.751 59.3603 103.929 58.7926 104.287 58.3858C104.463 58.1855 104.678 58.0276 104.917 57.9229C105.155 57.8182 105.413 57.7692 105.671 57.7791C105.922 57.7702 106.172 57.8188 106.404 57.9215C106.636 58.0242 106.845 58.1787 107.016 58.3744C107.365 58.772 107.538 59.3281 107.538 60.0475C107.538 60.0912 107.538 60.1578 107.538 60.2452H104.464C104.463 60.6485 104.599 61.0387 104.848 61.3438C104.958 61.4694 105.092 61.5686 105.242 61.6348C105.391 61.701 105.552 61.7326 105.714 61.7276C105.947 61.7338 106.175 61.6587 106.364 61.5138C106.563 61.3382 106.711 61.1052 106.789 60.8427ZM104.497 59.6499H106.791C106.782 59.353 106.69 59.0655 106.526 58.8248C106.423 58.6869 106.291 58.5765 106.141 58.5023C105.99 58.428 105.826 58.3921 105.66 58.3973C105.511 58.3939 105.363 58.4224 105.224 58.4812C105.086 58.5401 104.96 58.628 104.854 58.7398C104.63 58.9838 104.502 59.3093 104.497 59.6499Z" fill="#323135"/>
<path d="M109.053 62.3275V57.8785H109.698V58.5506C109.802 58.3119 109.952 58.0996 110.14 57.9277C110.274 57.8298 110.433 57.7775 110.595 57.7778C110.854 57.7819 111.107 57.863 111.325 58.012L111.081 58.7145C110.925 58.6102 110.745 58.5535 110.56 58.5506C110.405 58.5552 110.256 58.6174 110.14 58.7262C110.013 58.8294 109.92 58.973 109.875 59.136C109.795 59.4209 109.755 59.7168 109.758 60.014V62.3392L109.053 62.3275Z" fill="#323135"/>
<path d="M112.082 56.4618V55.4971H112.839V56.4618H112.082ZM112.082 62.3392V57.3717H112.839V62.3392H112.082Z" fill="#323135"/>
<path d="M113.597 62.3392V57.88H114.31V58.5137C114.468 58.279 114.687 58.0877 114.946 57.9588C115.205 57.8299 115.495 57.768 115.787 57.7791C116.053 57.7768 116.317 57.8263 116.562 57.9246C116.771 58.0015 116.955 58.1323 117.091 58.3025C117.213 58.47 117.297 58.6604 117.337 58.8611C117.374 59.1035 117.389 59.3485 117.381 59.5933V62.3299H116.604V59.6332C116.614 59.3998 116.583 59.1664 116.51 58.9432C116.449 58.7892 116.333 58.6604 116.183 58.5794C116.016 58.4857 115.825 58.4386 115.632 58.4433C115.311 58.437 115 58.5459 114.761 58.7484C114.514 58.9526 114.394 59.3398 114.394 59.9078V62.3392H113.597Z" fill="#323135"/>
<path d="M118.301 62.4918L119.147 62.5953C119.155 62.687 119.185 62.7763 119.236 62.858C119.287 62.9396 119.357 63.0118 119.442 63.07C119.704 63.215 120.015 63.2853 120.329 63.2703C120.658 63.2879 120.986 63.2177 121.264 63.07C121.486 62.9307 121.643 62.732 121.708 62.5076C121.765 62.201 121.786 61.8905 121.771 61.5806C121.6 61.7574 121.384 61.8995 121.137 61.9962C120.89 62.0929 120.621 62.1416 120.348 62.1386C120.035 62.1495 119.724 62.0975 119.441 61.987C119.158 61.8765 118.911 61.7108 118.721 61.5041C118.328 61.0647 118.124 60.5283 118.141 59.9809C118.138 59.5945 118.23 59.2115 118.412 58.856C118.569 58.5328 118.838 58.2556 119.185 58.0595C119.537 57.8684 119.951 57.7704 120.372 57.7783C120.662 57.7749 120.95 57.8286 121.21 57.935C121.471 58.0413 121.697 58.1973 121.871 58.3903V57.875H122.684V61.5626C122.684 62.2271 122.603 62.6973 122.44 62.9733C122.26 63.2534 121.977 63.4787 121.633 63.6167C121.23 63.7876 120.781 63.8704 120.329 63.8575C119.802 63.8778 119.282 63.758 118.843 63.5155C118.656 63.3968 118.508 63.2407 118.413 63.0616C118.319 62.8826 118.28 62.6866 118.301 62.4918ZM119.022 59.9292C119.022 60.4894 119.155 60.8966 119.424 61.1554C119.548 61.276 119.702 61.3729 119.876 61.4393C120.05 61.5058 120.239 61.5402 120.43 61.5402C120.622 61.5402 120.811 61.5058 120.985 61.4393C121.159 61.3729 121.313 61.276 121.437 61.1554C121.708 60.9019 121.844 60.5014 121.844 59.9539C121.881 59.5309 121.732 59.1112 121.424 58.7727C121.302 58.648 121.149 58.5475 120.974 58.4786C120.8 58.4097 120.609 58.3741 120.416 58.3745C120.226 58.3737 120.039 58.4085 119.868 58.4763C119.697 58.5441 119.547 58.6432 119.429 58.766C119.133 59.0978 118.989 59.5061 119.022 59.9179V59.9292Z" fill="#323135"/>
<path d="M126.471 62.328V55.4996H128.731C129.109 55.4826 129.485 55.5527 129.838 55.7057C130.109 55.8367 130.338 56.0601 130.492 56.345C130.643 56.6139 130.723 56.9263 130.722 57.2452C130.722 57.5369 130.65 57.8228 130.512 58.0697C130.358 58.3418 130.139 58.5582 129.879 58.6933C130.212 58.7915 130.506 59.0094 130.72 59.3143C130.919 59.6144 131.023 59.9823 131.014 60.358C131.017 60.6673 130.955 60.9728 130.835 61.2504C130.733 61.4989 130.582 61.717 130.393 61.887C130.194 62.0477 129.97 62.1621 129.732 62.2236C129.414 62.3066 129.088 62.3452 128.761 62.3384L126.471 62.328ZM127.269 58.3671H128.572C128.827 58.3785 129.083 58.3522 129.332 58.2889C129.514 58.2372 129.676 58.1178 129.792 57.9496C129.9 57.7749 129.954 57.565 129.946 57.3521C129.95 57.1412 129.9 56.9336 129.801 56.7546C129.707 56.5837 129.562 56.4576 129.392 56.3997C129.09 56.3222 128.78 56.2906 128.471 56.3058H127.267L127.269 58.3671ZM127.269 61.5217H128.768C128.949 61.5268 129.131 61.5164 129.311 61.4904C129.473 61.4601 129.629 61.3964 129.771 61.3025C129.899 61.208 130.004 61.0777 130.075 60.9242C130.157 60.7466 130.199 60.5482 130.195 60.3475C130.199 60.1117 130.139 59.88 130.022 59.6848C129.906 59.4964 129.737 59.3569 129.543 59.2882C129.256 59.2005 128.959 59.1618 128.662 59.1734H127.269V61.5217Z" fill="#323135"/>
<path d="M135.612 62.2377V61.5815C135.455 61.8185 135.236 62.0128 134.977 62.1455C134.717 62.2782 134.426 62.3448 134.132 62.3389C133.866 62.3403 133.603 62.2882 133.36 62.186C133.149 62.1079 132.965 61.977 132.827 61.8073C132.703 61.6399 132.619 61.4489 132.58 61.2474C132.541 61.0141 132.524 60.7779 132.531 60.5417V57.7778H133.325V60.2524C133.316 60.519 133.332 60.7859 133.372 61.0498C133.415 61.2383 133.528 61.4054 133.69 61.5203C133.866 61.6372 134.076 61.6966 134.29 61.6896C134.525 61.6899 134.756 61.6298 134.959 61.5156C135.157 61.4102 135.312 61.2446 135.4 61.0451C135.501 60.7656 135.546 60.4702 135.531 60.1748V57.7778H136.316V62.2471L135.612 62.2377Z" fill="#323135"/>
<path d="M137.073 60.9423L137.836 60.8272C137.862 61.0872 137.99 61.3281 138.194 61.5015C138.431 61.6683 138.723 61.7498 139.017 61.7316C139.298 61.7528 139.578 61.6786 139.808 61.5222C139.887 61.4654 139.951 61.3921 139.995 61.3079C140.04 61.2238 140.064 61.131 140.065 61.0366C140.066 60.9574 140.045 60.8794 140.005 60.81C139.965 60.7407 139.907 60.6824 139.837 60.6408C139.585 60.5277 139.32 60.4443 139.048 60.3923C138.645 60.3063 138.251 60.187 137.869 60.0356C137.664 59.948 137.491 59.8038 137.371 59.6214C137.266 59.4521 137.208 59.2598 137.202 59.0627C137.197 58.8657 137.244 58.6706 137.34 58.4962C137.432 58.3319 137.562 58.1902 137.72 58.082C137.87 57.9834 138.037 57.911 138.213 57.868C138.43 57.8068 138.654 57.7765 138.88 57.7782C139.2 57.7729 139.52 57.8228 139.822 57.9255C140.059 58.0013 140.267 58.1412 140.421 58.3282C140.564 58.5301 140.655 58.7609 140.688 59.0024L139.933 59.1014C139.909 58.8954 139.801 58.7067 139.632 58.5767C139.43 58.4383 139.183 58.3709 138.935 58.3857C138.669 58.3641 138.403 58.4237 138.175 58.556C138.107 58.5992 138.05 58.6576 138.011 58.7261C137.972 58.7946 137.95 58.8713 137.949 58.9495C137.948 59.0432 137.981 59.1343 138.043 59.2072C138.121 59.2976 138.223 59.366 138.338 59.4051C138.415 59.4327 138.644 59.4949 139.021 59.5938C139.41 59.6862 139.792 59.8007 140.166 59.9367C140.371 60.0172 140.547 60.1522 140.674 60.3256C140.803 60.5127 140.868 60.7341 140.859 60.9584C140.858 61.205 140.779 61.4456 140.633 61.6487C140.473 61.8752 140.247 62.0514 139.983 62.155C139.679 62.2786 139.352 62.3397 139.021 62.3345C138.541 62.3659 138.064 62.241 137.667 61.9801C137.341 61.7173 137.129 61.3471 137.073 60.9423Z" fill="#323135"/>
<path d="M142.374 56.4618V55.4971H143.132V56.4618H142.374ZM142.374 62.3392V57.3717H143.132V62.3392H142.374Z" fill="#323135"/>
<path d="M143.889 62.3392V57.88H144.601V58.5137C144.758 58.2791 144.978 58.0879 145.237 57.9591C145.496 57.8302 145.786 57.7682 146.078 57.7791C146.344 57.7767 146.608 57.8262 146.854 57.9246C147.063 58.0028 147.246 58.1333 147.383 58.3024C147.505 58.4705 147.588 58.6607 147.629 58.861C147.666 59.1034 147.681 59.3484 147.674 59.5933V62.3299H146.893V59.6332C146.904 59.3999 146.873 59.1665 146.802 58.9431C146.739 58.7899 146.624 58.6616 146.474 58.5794C146.307 58.4859 146.116 58.4388 145.923 58.4433C145.602 58.4373 145.29 58.5461 145.049 58.7484C144.804 58.9518 144.682 59.3382 144.682 59.9078V62.3392H143.889Z" fill="#323135"/>
<path d="M152.228 60.8431L152.948 60.9374C152.855 61.3492 152.633 61.7154 152.318 61.9764C151.922 62.2481 151.453 62.373 150.983 62.3314C150.513 62.2898 150.069 62.0841 149.72 61.7465C149.347 61.2904 149.158 60.6967 149.194 60.0938C149.194 59.3605 149.372 58.7928 149.727 58.3859C149.903 58.1855 150.118 58.0276 150.357 57.9229C150.595 57.8182 150.852 57.7692 151.11 57.7791C151.362 57.7699 151.612 57.8184 151.844 57.9211C152.076 58.0238 152.284 58.1785 152.455 58.3744C152.803 58.7721 152.977 59.3283 152.977 60.0478C152.977 60.0915 152.977 60.1581 152.977 60.2455H149.907C149.904 60.6488 150.039 61.0394 150.288 61.3442C150.398 61.4699 150.532 61.5691 150.682 61.6353C150.831 61.7015 150.992 61.7331 151.154 61.7281C151.386 61.7344 151.615 61.6593 151.803 61.5143C152.004 61.34 152.152 61.1064 152.228 60.8431ZM149.954 59.6502H152.247C152.239 59.3535 152.148 59.066 151.985 58.825C151.882 58.6872 151.75 58.5768 151.6 58.5026C151.449 58.4284 151.285 58.3924 151.119 58.3974C150.97 58.3938 150.821 58.4222 150.682 58.4811C150.544 58.5399 150.417 58.628 150.312 58.7399C150.089 58.9846 149.961 59.3098 149.954 59.6502Z" fill="#323135"/>
<path d="M153.734 60.9377L154.501 60.8226C154.527 61.0832 154.657 61.3245 154.864 61.4969C155.102 61.6641 155.395 61.7456 155.69 61.727C155.973 61.7482 156.255 61.674 156.486 61.5176C156.565 61.4608 156.63 61.3875 156.675 61.3033C156.72 61.2192 156.744 61.1264 156.745 61.032C156.744 60.9517 156.722 60.8729 156.679 60.8035C156.637 60.7341 156.576 60.6764 156.503 60.6362C156.25 60.5231 155.983 60.4397 155.709 60.3877C155.304 60.3017 154.907 60.1824 154.523 60.031C154.321 59.9428 154.152 59.8004 154.034 59.6214C153.92 59.445 153.86 59.2417 153.862 59.0346C153.862 58.847 153.91 58.6621 154.003 58.4962C154.096 58.3324 154.226 58.1908 154.385 58.082C154.532 57.9847 154.696 57.9123 154.869 57.868C155.087 57.8068 155.313 57.7765 155.54 57.7782C155.863 57.7729 156.184 57.8228 156.488 57.9255C156.727 58.0001 156.937 58.1402 157.091 58.3282C157.235 58.5296 157.327 58.7607 157.36 59.0024L156.6 59.1014C156.576 58.8959 156.468 58.7076 156.3 58.5767C156.095 58.4387 155.846 58.3713 155.595 58.3857C155.329 58.3641 155.061 58.4237 154.833 58.556C154.761 58.5974 154.702 58.6551 154.66 58.7238C154.617 58.7924 154.594 58.87 154.591 58.9495C154.59 59.0432 154.623 59.1343 154.685 59.2072C154.764 59.2976 154.867 59.366 154.983 59.4051C155.06 59.4327 155.29 59.4949 155.67 59.5938C156.061 59.6862 156.446 59.8007 156.822 59.9367C157.028 60.0172 157.206 60.1522 157.333 60.3256C157.464 60.5127 157.529 60.7341 157.52 60.9584C157.518 61.2047 157.44 61.445 157.294 61.6487C157.132 61.8747 156.904 62.0507 156.639 62.155C156.333 62.2786 156.003 62.3397 155.67 62.3345C155.187 62.3659 154.707 62.241 154.308 61.9801C153.987 61.7124 153.782 61.3408 153.734 60.9377Z" fill="#323135"/>
<path d="M158.278 60.9422L159.044 60.8272C159.069 61.0875 159.198 61.3288 159.403 61.5014C159.641 61.6689 159.933 61.7505 160.227 61.7315C160.508 61.7521 160.788 61.678 161.018 61.5221C161.097 61.4656 161.162 61.3924 161.206 61.3082C161.251 61.224 161.275 61.131 161.276 61.0366C161.277 60.9576 161.256 60.8797 161.217 60.8104C161.177 60.741 161.119 60.6826 161.049 60.6408C160.796 60.5278 160.53 60.4444 160.256 60.3923C159.853 60.3058 159.458 60.1865 159.076 60.0356C158.87 59.948 158.696 59.8037 158.577 59.6214C158.471 59.4519 158.413 59.2594 158.408 59.0624C158.403 58.8653 158.451 58.6704 158.548 58.4961C158.639 58.3314 158.769 58.1895 158.928 58.0819C159.075 57.9848 159.238 57.9124 159.41 57.8679C159.628 57.8068 159.854 57.7765 160.08 57.7782C160.401 57.7731 160.72 57.823 161.023 57.9255C161.26 58.0006 161.47 58.1406 161.625 58.3282C161.767 58.5303 161.858 58.7611 161.89 59.0024L161.134 59.1013C161.11 58.8956 161.003 58.707 160.835 58.5767C160.631 58.4387 160.385 58.3712 160.136 58.3857C159.869 58.3637 159.603 58.4234 159.374 58.556C159.306 58.599 159.249 58.6573 159.209 58.7258C159.169 58.7944 159.147 58.8711 159.145 58.9495C159.145 59.0432 159.178 59.1342 159.239 59.2072C159.319 59.2971 159.422 59.3653 159.538 59.4051C159.615 59.4327 159.842 59.4948 160.223 59.5938C160.611 59.6861 160.993 59.8006 161.367 59.9366C161.573 60.0171 161.75 60.1521 161.878 60.3255C162.007 60.5131 162.072 60.7341 162.064 60.9583C162.061 61.2048 161.983 61.445 161.837 61.6486C161.676 61.8746 161.449 62.0506 161.184 62.1549C160.88 62.2788 160.551 62.34 160.22 62.3344C159.738 62.3661 159.259 62.2412 158.861 61.98C158.539 61.7148 158.331 61.3451 158.278 60.9422Z" fill="#323135"/>
<path d="M166.467 60.8431L167.329 60.9374C167.217 61.3492 166.951 61.7154 166.574 61.9764C166.099 62.2481 165.535 62.373 164.971 62.3314C164.408 62.2898 163.876 62.0841 163.458 61.7465C163.01 61.2904 162.784 60.6967 162.827 60.0938C162.827 59.3605 163.04 58.7928 163.466 58.3859C163.677 58.1855 163.934 58.0276 164.221 57.9229C164.507 57.8182 164.815 57.7692 165.125 57.7791C165.426 57.77 165.727 57.8185 166.005 57.9212C166.284 58.024 166.534 58.1785 166.74 58.3744C167.155 58.7721 167.366 59.3283 167.366 60.0478C167.366 60.0915 167.366 60.1581 167.366 60.2455H163.668C163.664 60.6531 163.828 61.0479 164.13 61.3557C164.262 61.4816 164.424 61.581 164.603 61.6472C164.782 61.7134 164.975 61.7449 165.169 61.7396C165.448 61.7454 165.721 61.6704 165.948 61.5258C166.193 61.3483 166.373 61.1109 166.467 60.8431ZM163.728 59.6502H166.467C166.459 59.3533 166.35 59.0654 166.153 58.825C166.029 58.687 165.871 58.5766 165.691 58.5024C165.511 58.4281 165.313 58.3922 165.114 58.3974C164.936 58.3935 164.758 58.4219 164.592 58.4808C164.426 58.5397 164.275 58.6278 164.148 58.7399C163.877 58.9827 163.722 59.3087 163.715 59.6502H163.728Z" fill="#323135"/>
<path d="M168.123 60.9422L168.889 60.8272C168.914 61.0875 169.043 61.3288 169.248 61.5014C169.486 61.6689 169.778 61.7505 170.072 61.7315C170.353 61.7521 170.633 61.678 170.863 61.5221C170.942 61.4656 171.007 61.3924 171.051 61.3082C171.096 61.224 171.12 61.131 171.121 61.0366C171.122 60.9576 171.101 60.8797 171.062 60.8104C171.022 60.741 170.964 60.6826 170.894 60.6408C170.641 60.5278 170.375 60.4444 170.101 60.3923C169.698 60.3058 169.303 60.1865 168.92 60.0356C168.715 59.948 168.541 59.8037 168.422 59.6214C168.316 59.4519 168.258 59.2594 168.253 59.0624C168.248 58.8653 168.296 58.6704 168.393 58.4961C168.484 58.3314 168.614 58.1895 168.773 58.0819C168.92 57.9848 169.083 57.9124 169.255 57.8679C169.473 57.8068 169.699 57.7765 169.925 57.7782C170.246 57.7731 170.565 57.823 170.868 57.9255C171.105 58.0001 171.314 58.1402 171.468 58.3282C171.611 58.5296 171.703 58.7606 171.735 59.0024L170.978 59.1013C170.955 58.8956 170.848 58.707 170.68 58.5767C170.476 58.4387 170.23 58.3712 169.981 58.3857C169.714 58.3637 169.448 58.4234 169.219 58.556C169.151 58.599 169.094 58.6573 169.054 58.7258C169.014 58.7944 168.992 58.8711 168.99 58.9495C168.99 59.0432 169.023 59.1342 169.084 59.2072C169.164 59.2971 169.267 59.3653 169.383 59.4051C169.46 59.4327 169.687 59.4948 170.068 59.5938C170.456 59.6861 170.838 59.8006 171.212 59.9366C171.418 60.0171 171.595 60.1521 171.723 60.3255C171.852 60.5131 171.917 60.7341 171.909 60.9583C171.906 61.2048 171.828 61.445 171.682 61.6486C171.521 61.8746 171.294 62.0506 171.029 62.1549C170.725 62.2788 170.396 62.34 170.065 62.3344C169.583 62.3661 169.104 62.2412 168.706 61.98C168.384 61.7148 168.176 61.3451 168.123 60.9422Z" fill="#323135"/>
<path d="M176.29 62.3392L174.939 57.7874H175.712L176.411 60.4083L176.674 61.3834C176.674 61.3354 176.76 61.024 176.907 60.4466L177.606 57.7874H178.374L179.036 60.4227L179.255 61.2899L179.509 60.4131L180.266 57.7778H180.997L179.616 62.3297H178.838L178.139 59.6081L177.969 58.8343L177.075 62.3297L176.29 62.3392Z" fill="#323135"/>
<path d="M181.754 56.4618V55.4971H182.512V56.4618H181.754ZM181.754 62.3392V57.3717H182.512V62.3392H181.754Z" fill="#323135"/>
<path d="M185.428 61.6008L185.541 62.2693C185.345 62.3117 185.145 62.3345 184.944 62.3376C184.714 62.3484 184.486 62.3039 184.279 62.2081C184.131 62.1316 184.014 62.0109 183.944 61.8645C183.861 61.5742 183.829 61.2727 183.849 60.9723V58.4041H183.269V57.8156H183.849V56.7116L184.635 56.2573V57.8156H185.428V58.4041H184.642V61.0123C184.632 61.1517 184.646 61.2917 184.684 61.4266C184.711 61.4886 184.758 61.5406 184.819 61.5749C184.902 61.6154 184.996 61.6341 185.089 61.6291C185.203 61.6274 185.316 61.6179 185.428 61.6008Z" fill="#323135"/>
<path d="M186.298 62.3392V55.4971H187.085V57.9521C187.254 57.7339 187.467 57.5592 187.708 57.4411C187.949 57.3229 188.212 57.2643 188.477 57.2697C188.788 57.2617 189.096 57.3362 189.374 57.4867C189.613 57.6156 189.805 57.8276 189.918 58.088C190.043 58.4414 190.099 58.8189 190.082 59.1966V62.3339H189.295V59.1966C189.324 58.8695 189.237 58.5428 189.05 58.2815C188.954 58.1806 188.838 58.1028 188.712 58.0532C188.585 58.0036 188.45 57.9834 188.315 57.9939C188.083 57.994 187.855 58.0609 187.656 58.1874C187.46 58.3058 187.306 58.4895 187.217 58.7103C187.118 59.0032 187.073 59.314 187.085 59.6253V62.3366L186.298 62.3392Z" fill="#323135"/>
<path d="M193.871 59.0097C193.871 57.9126 194.154 57.0531 194.718 56.4313C194.998 56.1246 195.338 55.883 195.714 55.7223C196.09 55.5616 196.494 55.4853 196.9 55.4985C197.457 55.4907 198.005 55.6429 198.484 55.9384C198.95 56.2248 199.325 56.6488 199.561 57.1568C199.813 57.7091 199.939 58.3147 199.929 58.9263C199.94 59.5499 199.807 60.1671 199.541 60.7261C199.3 61.2352 198.915 61.6551 198.438 61.9293C197.966 62.2011 197.435 62.3421 196.895 62.3388C196.331 62.3477 195.776 62.1909 195.293 61.8863C194.829 61.594 194.458 61.1659 194.225 60.6553C193.989 60.142 193.868 59.5792 193.871 59.0097ZM194.737 59.0248C194.7 59.7122 194.921 60.3877 195.353 60.9081C195.554 61.1266 195.795 61.3005 196.063 61.4193C196.33 61.5381 196.617 61.5993 196.908 61.5993C197.198 61.5993 197.485 61.5381 197.753 61.4193C198.02 61.3005 198.261 61.1266 198.462 60.9081C198.869 60.4446 199.073 59.7874 199.073 58.9364C199.083 58.4521 198.994 57.9711 198.811 57.5259C198.658 57.1368 198.395 56.8055 198.057 56.5754C197.719 56.353 197.327 56.238 196.927 56.2442C196.643 56.2393 196.362 56.2931 196.098 56.4024C195.835 56.5118 195.595 56.6745 195.392 56.8813C194.955 57.316 194.737 58.0306 194.737 59.0248Z" fill="#323135"/>
<path d="M201.269 62.3289V58.0998H200.687V57.4574H201.269V56.9436C201.26 56.6972 201.284 56.4507 201.339 56.2139C201.403 56.0021 201.52 55.8219 201.673 55.7C201.876 55.5522 202.11 55.4825 202.344 55.4996C202.551 55.5027 202.757 55.5302 202.959 55.5818L202.861 56.3038C202.733 56.2738 202.603 56.2584 202.474 56.2575C202.321 56.2382 202.168 56.2955 202.049 56.4168C201.95 56.591 201.905 56.8052 201.924 57.0181V57.4677H202.682V58.1101H201.931V62.3392L201.269 62.3289Z" fill="#323135"/>
<path d="M203.735 62.3289V58.0998H202.959V57.4574H203.735V56.9436C203.723 56.6972 203.754 56.4507 203.828 56.2139C203.914 56.0021 204.07 55.8219 204.273 55.7C204.544 55.5522 204.856 55.4825 205.169 55.4996C205.444 55.5027 205.719 55.5302 205.988 55.5818L205.857 56.3038C205.687 56.2738 205.514 56.2584 205.341 56.2575C205.138 56.2382 204.934 56.2955 204.776 56.4168C204.643 56.591 204.583 56.8052 204.609 57.0181V57.4677H205.62V58.1101H204.609V62.3392L203.735 62.3289Z" fill="#323135"/>
<path d="M205.988 56.4618V55.4971H206.746V56.4618H205.988ZM205.988 62.3392V57.3717H206.746V62.3392H205.988Z" fill="#323135"/>
<path d="M211.178 60.6395L212.047 60.7362C211.981 61.1887 211.722 61.6062 211.318 61.9119C210.917 62.198 210.404 62.3496 209.877 62.3376C209.557 62.3488 209.237 62.3023 208.94 62.201C208.643 62.0998 208.376 61.9463 208.156 61.7509C207.721 61.3628 207.504 60.8036 207.504 60.0735C207.491 59.65 207.585 59.2291 207.779 58.8379C207.948 58.5 208.249 58.2195 208.632 58.0418C209.015 57.8653 209.447 57.7749 209.885 57.7795C210.385 57.7616 210.876 57.8884 211.277 58.1384C211.649 58.3968 211.894 58.7603 211.967 59.16L211.109 59.2705C211.053 59.0171 210.9 58.7856 210.675 58.6101C210.465 58.4591 210.197 58.3773 209.921 58.38C209.714 58.3729 209.507 58.4052 209.316 58.4746C209.126 58.5439 208.957 58.6484 208.821 58.7804C208.544 59.0473 208.406 59.4699 208.406 60.0482C208.406 60.6349 208.538 61.0606 208.808 61.3252C208.934 61.4547 209.095 61.5581 209.277 61.6275C209.459 61.6969 209.658 61.7304 209.858 61.7256C210.178 61.7339 210.49 61.6373 210.727 61.4563C210.987 61.2367 211.147 60.9476 211.178 60.6395Z" fill="#323135"/>
<path d="M215.694 60.8431L216.557 60.9374C216.445 61.3492 216.178 61.7154 215.801 61.9764C215.326 62.2481 214.762 62.373 214.198 62.3314C213.634 62.2898 213.101 62.0841 212.683 61.7465C212.236 61.2904 212.009 60.6967 212.052 60.0938C212.052 59.3605 212.265 58.7928 212.691 58.3859C212.903 58.1855 213.16 58.0276 213.447 57.9229C213.733 57.8182 214.042 57.7692 214.351 57.7791C214.653 57.77 214.954 57.8185 215.232 57.9212C215.511 58.024 215.762 58.1785 215.967 58.3744C216.383 58.7721 216.591 59.3283 216.591 60.0478C216.591 60.0915 216.591 60.1581 216.591 60.2455H212.896C212.895 60.6488 213.058 61.0391 213.356 61.3442C213.489 61.4701 213.65 61.5695 213.829 61.6357C214.008 61.7019 214.201 61.7334 214.395 61.7281C214.675 61.7339 214.948 61.6589 215.175 61.5143C215.418 61.3399 215.599 61.1067 215.694 60.8431ZM212.954 59.6502H215.702C215.694 59.3533 215.585 59.0654 215.388 58.825C215.264 58.687 215.106 58.5766 214.925 58.5024C214.745 58.4281 214.548 58.3922 214.349 58.3974C214.17 58.3935 213.992 58.4219 213.826 58.4808C213.66 58.5397 213.509 58.6278 213.382 58.7399C213.113 58.9834 212.959 59.3093 212.954 59.6502Z" fill="#323135"/>
<path d="M219.62 60.1108L220.451 60.04C220.475 60.3295 220.57 60.6089 220.726 60.8544C220.895 61.0833 221.127 61.2589 221.394 61.3602C221.716 61.4951 222.062 61.5623 222.411 61.5575C222.714 61.5627 223.015 61.5121 223.299 61.4083C223.527 61.3318 223.727 61.1891 223.873 60.9986C223.997 60.8353 224.063 60.6363 224.061 60.432C224.066 60.2356 224.002 60.0436 223.881 59.8883C223.719 59.7074 223.512 59.573 223.281 59.4988C222.892 59.3695 222.497 59.2614 222.096 59.1751C221.658 59.085 221.232 58.9467 220.825 58.7628C220.538 58.6232 220.293 58.4103 220.116 58.1457C219.958 57.8996 219.877 57.6129 219.882 57.3212C219.881 56.9881 219.98 56.6624 220.166 56.3855C220.37 56.0845 220.662 55.8532 221.003 55.7229C221.391 55.5691 221.806 55.4926 222.223 55.4978C222.67 55.4886 223.113 55.5694 223.527 55.7355C223.882 55.8747 224.185 56.1182 224.397 56.4335C224.601 56.7438 224.715 57.1046 224.725 57.4755L223.881 57.5388C223.871 57.358 223.825 57.1811 223.745 57.0183C223.666 56.8554 223.555 56.71 223.418 56.5903C223.08 56.3541 222.671 56.2407 222.259 56.2691C221.849 56.2362 221.439 56.3394 221.094 56.5625C220.983 56.6427 220.892 56.7479 220.829 56.8696C220.765 56.9913 220.732 57.1261 220.731 57.2631C220.728 57.3734 220.749 57.483 220.793 57.5844C220.837 57.6857 220.902 57.7763 220.985 57.8498C221.155 58.0033 221.598 58.1609 222.315 58.3228C222.817 58.4195 223.31 58.5608 223.787 58.7451C224.13 58.8867 224.427 59.1206 224.644 59.4204C224.831 59.6983 224.928 60.0267 224.921 60.3612C224.92 60.7148 224.815 61.0604 224.618 61.3551C224.403 61.6767 224.1 61.9297 223.744 62.0835C223.343 62.2574 222.909 62.3437 222.472 62.3364C221.952 62.3561 221.433 62.27 220.947 62.0835C220.556 61.9217 220.223 61.6468 219.991 61.2944C219.756 60.9432 219.628 60.5325 219.62 60.1108Z" fill="#323135"/>
<path d="M229.513 62.2377V61.5815C229.356 61.8185 229.137 62.0128 228.878 62.1455C228.619 62.2782 228.329 62.3448 228.035 62.3389C227.77 62.3405 227.507 62.2884 227.264 62.186C227.055 62.1079 226.871 61.977 226.733 61.8073C226.609 61.6399 226.525 61.4489 226.486 61.2474C226.447 61.0141 226.431 60.7779 226.437 60.5417V57.7778H227.23V60.2524C227.221 60.519 227.236 60.7859 227.277 61.0498C227.319 61.2383 227.432 61.4054 227.594 61.5203C227.769 61.6372 227.979 61.6966 228.193 61.6896C228.428 61.6896 228.658 61.6295 228.86 61.5156C229.058 61.4102 229.213 61.2446 229.301 61.0451C229.401 60.7653 229.445 60.4701 229.432 60.1748V57.7778H230.222V62.2471L229.513 62.2377Z" fill="#323135"/>
<path d="M230.979 63.8597V57.8766H231.788V58.438C231.957 58.2357 232.178 58.0667 232.434 57.9428C232.703 57.8275 233.004 57.771 233.307 57.7785C233.726 57.7724 234.138 57.8718 234.488 58.0637C234.838 58.2623 235.108 58.5428 235.264 58.8692C235.619 59.6212 235.609 60.4575 235.236 61.2036C235.067 61.5256 234.789 61.8004 234.435 61.9951C234.082 62.1898 233.668 62.296 233.243 62.3012C232.966 62.3048 232.692 62.2515 232.445 62.146C232.221 62.0506 232.024 61.9177 231.866 61.7558V63.8597H230.979ZM231.783 60.0627C231.783 60.6194 231.919 61.0309 232.191 61.2971C232.309 61.4212 232.46 61.5216 232.631 61.5908C232.803 61.66 232.991 61.6961 233.182 61.6965C233.378 61.6958 233.572 61.658 233.747 61.586C233.923 61.514 234.076 61.4098 234.196 61.2812C234.472 61.0074 234.618 60.5784 234.618 60.001C234.658 59.5608 234.512 59.1228 234.204 58.762C234.09 58.6354 233.941 58.5325 233.771 58.4612C233.6 58.3899 233.412 58.3523 233.221 58.3512C233.024 58.3553 232.832 58.397 232.658 58.473C232.484 58.549 232.334 58.6573 232.219 58.7894C231.9 59.1593 231.746 59.6093 231.783 60.0627Z" fill="#323135"/>
<path d="M236.281 63.8574V57.8765H236.953V58.4377C237.093 58.2362 237.275 58.0673 237.487 57.9427C237.711 57.8277 237.96 57.7712 238.212 57.7785C238.561 57.7723 238.904 57.8717 239.195 58.0636C239.486 58.2616 239.71 58.5422 239.838 58.8688C239.99 59.2299 240.068 59.6177 240.067 60.0093C240.073 60.4203 239.991 60.8278 239.826 61.2046C239.687 61.5278 239.457 61.8038 239.163 61.9987C238.869 62.1936 238.524 62.2989 238.17 62.3018C237.941 62.3051 237.714 62.2518 237.51 62.1466C237.324 62.0512 237.16 61.9184 237.028 61.7566V63.8597L236.281 63.8574ZM236.948 60.0641C236.948 60.6206 237.061 61.032 237.287 61.2981C237.385 61.4224 237.51 61.5229 237.653 61.5921C237.795 61.6613 237.952 61.6972 238.111 61.6973C238.274 61.6966 238.434 61.6588 238.58 61.5869C238.726 61.5149 238.853 61.4106 238.952 61.2821C239.182 61.0084 239.301 60.5796 239.301 60.0025C239.301 59.4254 239.189 59.0376 238.959 58.7639C238.864 58.6374 238.741 58.5344 238.599 58.4632C238.458 58.392 238.302 58.3543 238.143 58.3533C237.979 58.3573 237.819 58.399 237.675 58.475C237.53 58.551 237.406 58.6592 237.31 58.7912C237.045 59.1599 236.917 59.6092 236.948 60.0618V60.0641Z" fill="#323135"/>
<path d="M241.582 62.3392V55.4971H242.339V62.3392H241.582Z" fill="#323135"/>
<path d="M243.096 56.4618V55.4971H243.854V56.4618H243.096ZM243.096 62.3392V57.3717H243.854V62.3392H243.096Z" fill="#323135"/>
<path d="M248.409 60.8427L249.127 60.937C249.035 61.3495 248.813 61.7161 248.497 61.9758C248.101 62.2479 247.632 62.373 247.162 62.3314C246.692 62.2898 246.248 62.0839 245.9 61.746C245.528 61.2897 245.338 60.6965 245.372 60.0935C245.372 59.3603 245.55 58.7926 245.907 58.3858C246.083 58.1855 246.298 58.0276 246.536 57.9229C246.775 57.8182 247.032 57.7692 247.29 57.7791C247.541 57.7702 247.791 57.8188 248.023 57.9215C248.254 58.0242 248.463 58.1787 248.634 58.3744C248.982 58.772 249.155 59.3281 249.155 60.0475C249.155 60.0912 249.155 60.1578 249.155 60.2452H246.095C246.094 60.6485 246.23 61.0387 246.478 61.3438C246.589 61.4694 246.723 61.5686 246.872 61.6348C247.021 61.701 247.182 61.7326 247.344 61.7276C247.576 61.7338 247.805 61.6587 247.993 61.5138C248.19 61.3382 248.335 61.1049 248.409 60.8427ZM246.126 59.6499H248.417C248.41 59.3528 248.318 59.065 248.153 58.8248C248.05 58.6869 247.918 58.5765 247.768 58.5023C247.618 58.428 247.453 58.3921 247.288 58.3973C247.139 58.3939 246.99 58.4224 246.852 58.4812C246.714 58.5401 246.588 58.628 246.483 58.7398C246.26 58.9844 246.132 59.3096 246.126 59.6499Z" fill="#323135"/>
<path d="M249.912 60.9423L250.68 60.8272C250.706 61.0872 250.835 61.3281 251.04 61.5015C251.279 61.6683 251.572 61.7498 251.868 61.7316C252.151 61.7528 252.433 61.6786 252.664 61.5222C252.744 61.4654 252.808 61.3921 252.853 61.3079C252.898 61.2238 252.922 61.131 252.923 61.0366C252.923 60.9563 252.9 60.8775 252.858 60.8081C252.815 60.7387 252.755 60.681 252.681 60.6408C252.428 60.5277 252.162 60.4443 251.888 60.3923C251.482 60.3063 251.085 60.187 250.701 60.0356C250.495 59.948 250.32 59.8038 250.2 59.6214C250.094 59.4521 250.036 59.2598 250.03 59.0627C250.025 58.8657 250.072 58.6706 250.169 58.4962C250.261 58.3319 250.392 58.1902 250.551 58.082C250.699 57.9847 250.862 57.9123 251.035 57.868C251.253 57.8068 251.479 57.7765 251.706 57.7782C252.029 57.7729 252.35 57.8228 252.655 57.9255C252.893 58.0001 253.103 58.1402 253.258 58.3282C253.401 58.5301 253.493 58.7609 253.526 59.0024L252.766 59.1014C252.742 58.8954 252.633 58.7067 252.464 58.5767C252.26 58.4383 252.012 58.3709 251.762 58.3857C251.494 58.3644 251.226 58.424 250.997 58.556C250.928 58.5992 250.872 58.6576 250.832 58.7261C250.792 58.7946 250.771 58.8713 250.769 58.9495C250.768 59.0432 250.802 59.1343 250.864 59.2072C250.942 59.2976 251.045 59.366 251.161 59.4051C251.239 59.4327 251.469 59.4949 251.849 59.5938C252.24 59.6862 252.624 59.8007 253.001 59.9367C253.207 60.0172 253.384 60.1522 253.512 60.3256C253.642 60.5127 253.707 60.7341 253.698 60.9584C253.697 61.205 253.618 61.4456 253.471 61.6487C253.31 61.8752 253.083 62.0514 252.817 62.155C252.511 62.2786 252.181 62.3397 251.849 62.3345C251.365 62.3659 250.885 62.241 250.486 61.9801C250.166 61.7135 249.962 61.3438 249.912 60.9423Z" fill="#323135"/>
</svg>
