<svg width="1080" height="1080" viewBox="0 0 1080 1080" fill="none" xmlns="http://www.w3.org/2000/svg">
<rect width="1080" height="1080" fill="#FF6600"/>
<path d="M759.194 720.826C786.154 685.313 805.352 644.5 815.536 601.047C824.459 563.156 826.215 523.922 820.712 485.381C817.162 461.696 807.245 400.727 759.102 343.135C715.929 291.516 665.748 270.886 645.181 262.731C591.131 241.878 532.339 236.625 475.466 247.569C437.573 254.807 401.442 269.358 369.08 290.413C343.734 307.313 321.223 328.14 302.385 352.117C283.801 375.914 268.913 402.395 258.228 430.66C248.145 455.744 241.176 481.976 237.477 508.767C233.381 541.39 234.455 574.458 240.661 606.744C245.242 630.705 252.662 669.804 280.192 710.511C312.807 758.753 354.926 781.726 381.311 795.624C428.24 820.457 469.466 827.211 498.713 831.783C546.811 839.249 583.021 837.021 613.803 835.275C666.618 832.265 741.764 828.383 843.959 824.776L733.519 726.201H545.207C536.046 726.201 431.377 725.696 377.829 644.58C347.574 598.773 348.192 549.29 348.559 534.45C348.971 518.369 350.528 477.294 377.829 435.301C394.12 410.666 416.035 390.285 441.753 375.848C457.968 366.659 503.111 344.467 561.492 353.679C594.844 359.489 626.098 373.96 652.143 395.65C665.885 407.136 694.812 431.671 709.104 474.928C721.472 512.327 716.479 544.007 713.685 560.041C708.039 592.585 694.468 623.226 674.176 649.243C690.254 662.491 706.424 675.991 722.686 689.744C735.069 700.097 747.238 710.458 759.194 720.826Z" fill="white"/>
<path d="M539.5 624.749C586.581 624.749 624.749 586.581 624.749 539.5C624.749 492.419 586.581 454.251 539.5 454.251C492.419 454.251 454.251 492.419 454.251 539.5C454.251 586.581 492.419 624.749 539.5 624.749Z" fill="white"/>
</svg>
